name Walk7.mot
datacolumns 19
datarows 10
range 2.86400000 2.87300000
endheader

                time	   L_ground_force_vx	   L_ground_force_vy	   L_ground_force_vz	   L_ground_force_px	   L_ground_force_py	   L_ground_force_pz	   R_ground_force_vx	   R_ground_force_vy	   R_ground_force_vz	   R_ground_force_px	   R_ground_force_py	   R_ground_force_pz	   L_ground_torque_x	   L_ground_torque_y	   L_ground_torque_z	   R_ground_torque_x	   R_ground_torque_y	   R_ground_torque_z	
          2.86400000	          0.00000000	          0.00000000	         -0.00000000	         -0.00000000	          0.00000000	         -0.00000000	         14.49544662	         46.88698246	          1.52753369	          0.17708734	          0.00000000	          0.04233174	          0.00000000	          0.00000000	          0.00000000	          0.00000000	         -3.40881271	          0.00000000	
          2.86500000	          0.00000000	          0.00000000	         -0.00000000	         -0.00000000	          0.00000000	         -0.00000000	         13.50590463	         42.84814562	          1.53146957	          0.16976117	          0.00000000	          0.04050608	          0.00000000	          0.00000000	          0.00000000	          0.00000000	         -3.20061103	          0.00000000	
          2.86600000	          0.00000000	          0.00000000	         -0.00000000	         -0.00000000	          0.00000000	         -0.00000000	         12.54947592	         38.99085820	          1.52928860	          0.16241847	          0.00000000	          0.03868304	          0.00000000	          0.00000000	          0.00000000	          0.00000000	         -2.99802297	          0.00000000	
          2.86700000	          0.00000000	          0.00000000	         -0.00000000	         -0.00000000	          0.00000000	         -0.00000000	         11.62694701	         35.31420443	          1.52151488	          0.15508664	          0.00000000	          0.03686890	          0.00000000	          0.00000000	          0.00000000	          0.00000000	         -2.80133173	          0.00000000	
          2.86800000	          0.00000000	          0.00000000	         -0.00000000	         -0.00000000	          0.00000000	         -0.00000000	         10.73891982	         31.81671091	          1.50865267	          0.14779215	          0.00000000	          0.03506969	          0.00000000	          0.00000000	          0.00000000	          0.00000000	         -2.61077842	          0.00000000	
          2.86900000	          0.00000000	          0.00000000	         -0.00000000	         -0.00000000	          0.00000000	         -0.00000000	          9.88581653	         28.49636091	          1.49118321	          0.14055940	          0.00000000	          0.03329093	          0.00000000	          0.00000000	          0.00000000	          0.00000000	         -2.42656122	          0.00000000	
          2.87000000	          0.00000000	          0.00000000	         -0.00000000	         -0.00000000	          0.00000000	         -0.00000000	          9.06789143	         25.35063978	          1.46956424	          0.13341046	          0.00000000	          0.03153762	          0.00000000	          0.00000000	          0.00000000	          0.00000000	         -2.24883753	          0.00000000	
          2.87100000	          0.00000000	          0.00000000	         -0.00000000	         -0.00000000	          0.00000000	         -0.00000000	          8.28524427	         22.37658679	          1.44423026	          0.12636523	          0.00000000	          0.02981420	          0.00000000	          0.00000000	          0.00000000	          0.00000000	         -2.07772681	          0.00000000	
          2.87200000	          0.00000000	          0.00000000	         -0.00000000	         -0.00000000	          0.00000000	         -0.00000000	          7.53783303	         19.57084426	          1.41559288	          0.11944151	          0.00000000	          0.02812465	          0.00000000	          0.00000000	          0.00000000	          0.00000000	         -1.91331338	          0.00000000	
          2.87300000	          0.00000000	          0.00000000	         -0.00000000	         -0.00000000	          0.00000000	         -0.00000000	          6.82548609	         16.92970397	          1.38404117	          0.11265514	          0.00000000	          0.02647248	          0.00000000	          0.00000000	          0.00000000	          0.00000000	         -1.75564911	          0.00000000	
